<svg id="Layer_1" data-name="Layer 1" xmlns="http://www.w3.org/2000/svg" xmlns:xlink="http://www.w3.org/1999/xlink" viewBox="0 0 70 62.17"><defs><style>.cls-1{fill:#7ecede;}.cls-2{fill:#ff900d;}.cls-3{fill:#09164d;}.cls-10,.cls-11,.cls-15,.cls-4,.cls-5,.cls-6,.cls-7,.cls-8,.cls-9{fill-rule:evenodd;}.cls-4{fill:url(#linear-gradient);}.cls-5{fill:url(#linear-gradient-2);}.cls-6{fill:url(#linear-gradient-3);}.cls-7{fill:url(#linear-gradient-4);}.cls-8{fill:url(#linear-gradient-5);}.cls-9{fill:url(#linear-gradient-6);}.cls-10{fill:url(#linear-gradient-7);}.cls-11{fill:url(#linear-gradient-8);}.cls-12{fill:url(#linear-gradient-9);}.cls-13{fill:url(#linear-gradient-10);}.cls-14{fill:url(#linear-gradient-11);}.cls-15{fill:url(#linear-gradient-12);}</style><linearGradient id="linear-gradient" x1="7.82" y1="25.26" x2="10.77" y2="25.26" gradientUnits="userSpaceOnUse"><stop offset="0" stop-color="#ff900d"/><stop offset="0.25" stop-color="#ec740d"/><stop offset="0.52" stop-color="#de5e0e"/><stop offset="0.77" stop-color="#d5500e"/><stop offset="1" stop-color="#d24c0e"/></linearGradient><linearGradient id="linear-gradient-2" x1="13.51" y1="42.49" x2="13.51" y2="38.45" xlink:href="#linear-gradient"/><linearGradient id="linear-gradient-3" x1="56.71" y1="21.66" x2="56.71" y2="17.64" gradientUnits="userSpaceOnUse"><stop offset="0" stop-color="#d24c0e"/><stop offset="1" stop-color="#ff900d"/></linearGradient><linearGradient id="linear-gradient-4" x1="5.23" y1="32.79" x2="5.23" y2="30.2" gradientUnits="userSpaceOnUse"><stop offset="0" stop-color="#ff900d"/><stop offset="0.58" stop-color="#e3660e"/><stop offset="1" stop-color="#d24c0e"/></linearGradient><linearGradient id="linear-gradient-5" x1="65.15" y1="29.93" x2="65.15" y2="27.34" xlink:href="#linear-gradient-3"/><linearGradient id="linear-gradient-6" x1="21.09" y1="15.64" x2="24.51" y2="15.64" gradientUnits="userSpaceOnUse"><stop offset="0" stop-color="#ff900d"/><stop offset="0.62" stop-color="#e1630e"/><stop offset="1" stop-color="#d24c0e"/></linearGradient><linearGradient id="linear-gradient-7" x1="31.95" y1="5.95" x2="35.24" y2="5.95" gradientUnits="userSpaceOnUse"><stop offset="0" stop-color="#ff900d"/><stop offset="1" stop-color="#d24c0e"/></linearGradient><linearGradient id="linear-gradient-8" x1="26.48" y1="50.31" x2="26.48" y2="46.63" xlink:href="#linear-gradient"/><linearGradient id="linear-gradient-9" x1="29.47" y1="54.09" x2="31.85" y2="54.09" xlink:href="#linear-gradient-3"/><linearGradient id="linear-gradient-10" x1="59.72" y1="34.84" x2="62.4" y2="34.84" xlink:href="#linear-gradient-3"/><linearGradient id="linear-gradient-11" x1="45.35" y1="44.65" x2="49.06" y2="44.65" xlink:href="#linear-gradient-3"/><linearGradient id="linear-gradient-12" x1="43.07" y1="13.64" x2="43.07" y2="10.85" xlink:href="#linear-gradient-3"/></defs><path class="cls-1" d="M59.72,21.66V20.27a6.63,6.63,0,0,0-6.63-6.63H46c0-6.49-6.53-6.31-10.73-11.57h0C31,7.33,24.5,7.15,24.51,13.64H17.4a6.63,6.63,0,0,0-6.63,6.63v1.56c-5.14.1-5,5.11-9.2,8.37h0c4.22,3.18,4.17,8.15,9.2,8.25V40a6.63,6.63,0,0,0,6.63,6.63h7.09V56.87a1.92,1.92,0,0,0,3,1.6L45.35,46.63h7.74A6.63,6.63,0,0,0,59.72,40V38.28c5-.17,4.9-5.13,9.07-8.36h0C64.61,26.76,64.63,21.84,59.72,21.66Z"/><path class="cls-2" d="M35.24,7.62a36.88,36.88,0,0,0,3.39,2.26c3,1.82,3.35,2.24,3.35,3.76a4,4,0,0,0,4,4h7.11a2.63,2.63,0,0,1,2.63,2.63v1.39a4,4,0,0,0,3.86,4c.69,0,.86,0,2.26,2.2.42.65.88,1.36,1.43,2.09-.54.74-1,1.45-1.4,2.1-1.39,2.21-1.54,2.21-2.29,2.24a4,4,0,0,0-3.86,4V40a2.63,2.63,0,0,1-2.63,2.63H45.35a4,4,0,0,0-2.21.67L28.49,53V46.63a4,4,0,0,0-4-4H17.4A2.63,2.63,0,0,1,14.77,40V38.45a4,4,0,0,0-3.92-4c-.75,0-.91,0-2.33-2.21-.42-.64-.87-1.35-1.42-2.08.54-.73,1-1.44,1.39-2.09,1.4-2.22,1.57-2.23,2.36-2.24a4,4,0,0,0,3.92-4V20.27a2.63,2.63,0,0,1,2.63-2.63h7.11a4,4,0,0,0,4-4c0-1.52.37-1.94,3.34-3.76a35.57,35.57,0,0,0,3.39-2.26m0-5.55h0C31,7.33,24.5,7.15,24.51,13.64H17.4a6.63,6.63,0,0,0-6.63,6.63v1.56c-5.14.1-5,5.11-9.2,8.37h0c4.22,3.18,4.17,8.15,9.2,8.25V40a6.63,6.63,0,0,0,6.63,6.63h7.09V57a1.88,1.88,0,0,0,1.88,1.88,1.83,1.83,0,0,0,1-.32l18-11.88h7.74A6.63,6.63,0,0,0,59.72,40V38.28c5-.17,4.9-5.13,9.07-8.36h0c-4.18-3.15-4.16-8.07-9.07-8.25V20.27a6.63,6.63,0,0,0-6.63-6.63H46c0-6.49-6.53-6.31-10.73-11.57Z"/><path class="cls-3" d="M24.48,34h-8.1l1.05-1.8h1.14a4,4,0,0,1,.8-2,2.36,2.36,0,0,1,1.9-1h.8A4.21,4.21,0,0,0,23.52,29c.63-.22.95-.54.95-.95Zm-1.79-1.8v-.59c0-.26,0-.46,0-.61H21.29a.73.73,0,0,0-.62.45,2,2,0,0,0-.28.75Z"/><path class="cls-3" d="M34.31,32.22V34h-11l1-1.8h1.41V25.6a1.7,1.7,0,0,1,.54-1.27,1.77,1.77,0,0,1,1.28-.53v6.05a1.71,1.71,0,0,1,1.36-.63h2.81a.87.87,0,0,1,.64.27.83.83,0,0,1,.26.62v2.11Zm-3.5,0V31H27.52v1.2ZM30.64,26a.83.83,0,0,1-.27.63A.9.9,0,0,1,28.84,26a.9.9,0,0,1,1.53-.64A.87.87,0,0,1,30.64,26Z"/><path class="cls-3" d="M42.37,32.22,43,34H31.11l1-1.8H33.8V30.11a.83.83,0,0,1,.26-.62.85.85,0,0,1,.63-.27h3a1.76,1.76,0,0,1,1.19.62v-6a1.71,1.71,0,0,1,1.25.55,1.75,1.75,0,0,1,.54,1.25v6.62Zm-3.48,0V31H35.58v1.2ZM37.57,26a.83.83,0,0,1-.27.63.86.86,0,0,1-.63.27.85.85,0,0,1-.63-.27.83.83,0,0,1-.27-.63.9.9,0,0,1,.9-.9.89.89,0,0,1,.63.26A.87.87,0,0,1,37.57,26Z"/><path class="cls-3" d="M49.32,32.22V34H43.05a1.69,1.69,0,0,1-1.27-.53,1.77,1.77,0,0,1-.53-1.27V31a1.69,1.69,0,0,1,.51-1.27,1.77,1.77,0,0,1,1.29-.53v3h2.31V31a1.67,1.67,0,0,1,.54-1.25,1.75,1.75,0,0,1,1.26-.52c0,1.17,0,2.17,0,3Z"/><path class="cls-3" d="M52.75,34H46.13l1-1.8h1.76V25.56a1.72,1.72,0,0,1,.54-1.27,1.82,1.82,0,0,1,1.29-.53c0-.08,0,.59,0,2v6.44h2Z"/><path class="cls-3" d="M33.27,25.11a.89.89,0,1,0,.89.89.89.89,0,0,0-.89-.89Z"/><path class="cls-4" d="M10.77,21.83v4a1.18,1.18,0,0,0-1,.4,12.22,12.22,0,0,0-1.06,1.48l-.62,1-.28-6A5,5,0,0,1,10.77,21.83Z"/><path class="cls-5" d="M10.75,38.47l4,0v1.47A2.67,2.67,0,0,0,15,41a2.78,2.78,0,0,0,1.31,1.38l-5,.1a6,6,0,0,1-.46-2.23S10.76,38.46,10.75,38.47Z"/><path class="cls-6" d="M59.72,21.63l-4,0V20.2a2.65,2.65,0,0,0-2-2.51l5.49-.05a5.19,5.19,0,0,1,.54,2.22S59.71,21.64,59.72,21.63Z"/><path class="cls-7" d="M1.57,30.2H7.12s1.44,2,1.76,2.59H4A13.46,13.46,0,0,0,1.57,30.2Z"/><path class="cls-8" d="M68.8,29.92H63.28s-.8-1-1.77-2.59h4.8A14.6,14.6,0,0,0,68.8,29.92Z"/><path class="cls-9" d="M24.51,13.64v4H21.09v-4S24.51,13.6,24.51,13.64Z"/><path class="cls-10" d="M35.24,2.07V7.61S34,8.54,33.29,9L32,9.83V5.07Z"/><path class="cls-11" d="M24.49,46.63h4v3.66l-4,0S24.47,46.63,24.49,46.63Z"/><polygon class="cls-12" points="28.49 52.98 28.49 57.8 32.44 55.19 32.44 50.38 28.49 52.98"/><path class="cls-13" d="M59.72,38.28v-4a1.22,1.22,0,0,0,.63-.18,3.8,3.8,0,0,0,.65-.73l.62-.9.66-1.07.12,6.12A5.3,5.3,0,0,1,59.72,38.28Z"/><polygon class="cls-14" points="45.35 46.63 45.35 42.64 49.06 42.64 49.06 46.66 45.35 46.63"/><path class="cls-15" d="M46,13.64H42a2.69,2.69,0,0,0-.59-1.81,11.45,11.45,0,0,0-1.23-1h5.28A5.74,5.74,0,0,1,46,13.64Z"/></svg>