<svg width="79" height="31" viewBox="0 0 79 31" fill="none" xmlns="http://www.w3.org/2000/svg">
<rect x="0.75" y="0.0975342" width="78" height="30" rx="4" fill="#1D0500" fill-opacity="0.41"/>
<path d="M14.852 20.7375C14.1053 20.7375 13.41 20.6162 12.766 20.3735C12.1313 20.1215 11.576 19.7715 11.1 19.3235C10.6333 18.8662 10.2693 18.3295 10.008 17.7135C9.74667 17.0975 9.616 16.4255 9.616 15.6975C9.616 14.9695 9.74667 14.2975 10.008 13.6815C10.2693 13.0655 10.638 12.5335 11.114 12.0855C11.59 11.6282 12.1453 11.2782 12.78 11.0355C13.4147 10.7835 14.11 10.6575 14.866 10.6575C15.6687 10.6575 16.4013 10.7975 17.064 11.0775C17.7267 11.3482 18.2867 11.7542 18.744 12.2955L17.568 13.4015C17.2133 13.0189 16.8167 12.7342 16.378 12.5475C15.9393 12.3515 15.4633 12.2535 14.95 12.2535C14.4367 12.2535 13.9653 12.3375 13.536 12.5055C13.116 12.6735 12.7473 12.9115 12.43 13.2195C12.122 13.5275 11.8793 13.8915 11.702 14.3115C11.534 14.7315 11.45 15.1935 11.45 15.6975C11.45 16.2015 11.534 16.6635 11.702 17.0835C11.8793 17.5035 12.122 17.8675 12.43 18.1755C12.7473 18.4835 13.116 18.7215 13.536 18.8895C13.9653 19.0575 14.4367 19.1415 14.95 19.1415C15.4633 19.1415 15.9393 19.0482 16.378 18.8615C16.8167 18.6655 17.2133 18.3715 17.568 17.9795L18.744 19.0995C18.2867 19.6315 17.7267 20.0375 17.064 20.3175C16.4013 20.5975 15.664 20.7375 14.852 20.7375ZM23.3928 20.6955C22.6274 20.6955 21.9461 20.5322 21.3488 20.2055C20.7514 19.8695 20.2801 19.4122 19.9348 18.8335C19.5894 18.2549 19.4168 17.5969 19.4168 16.8595C19.4168 16.1129 19.5894 15.4549 19.9348 14.8855C20.2801 14.3069 20.7514 13.8542 21.3488 13.5275C21.9461 13.2009 22.6274 13.0375 23.3928 13.0375C24.1674 13.0375 24.8534 13.2009 25.4508 13.5275C26.0574 13.8542 26.5288 14.3022 26.8648 14.8715C27.2101 15.4409 27.3828 16.1035 27.3828 16.8595C27.3828 17.5969 27.2101 18.2549 26.8648 18.8335C26.5288 19.4122 26.0574 19.8695 25.4508 20.2055C24.8534 20.5322 24.1674 20.6955 23.3928 20.6955ZM23.3928 19.1975C23.8221 19.1975 24.2048 19.1042 24.5408 18.9175C24.8768 18.7309 25.1381 18.4602 25.3248 18.1055C25.5208 17.7509 25.6188 17.3355 25.6188 16.8595C25.6188 16.3742 25.5208 15.9589 25.3248 15.6135C25.1381 15.2589 24.8768 14.9882 24.5408 14.8015C24.2048 14.6149 23.8268 14.5215 23.4068 14.5215C22.9774 14.5215 22.5948 14.6149 22.2588 14.8015C21.9321 14.9882 21.6708 15.2589 21.4748 15.6135C21.2788 15.9589 21.1808 16.3742 21.1808 16.8595C21.1808 17.3355 21.2788 17.7509 21.4748 18.1055C21.6708 18.4602 21.9321 18.7309 22.2588 18.9175C22.5948 19.1042 22.9728 19.1975 23.3928 19.1975ZM33.2002 20.6955C32.5935 20.6955 32.0382 20.5555 31.5342 20.2755C31.0395 19.9955 30.6429 19.5755 30.3442 19.0155C30.0549 18.4462 29.9102 17.7275 29.9102 16.8595C29.9102 15.9822 30.0502 15.2635 30.3302 14.7035C30.6195 14.1435 31.0115 13.7282 31.5062 13.4575C32.0009 13.1775 32.5655 13.0375 33.2002 13.0375C33.9375 13.0375 34.5862 13.1962 35.1462 13.5135C35.7155 13.8309 36.1635 14.2742 36.4902 14.8435C36.8262 15.4129 36.9942 16.0849 36.9942 16.8595C36.9942 17.6342 36.8262 18.3109 36.4902 18.8895C36.1635 19.4589 35.7155 19.9022 35.1462 20.2195C34.5862 20.5369 33.9375 20.6955 33.2002 20.6955ZM29.0562 23.3135V13.1215H30.7222V14.8855L30.6662 16.8735L30.8062 18.8615V23.3135H29.0562ZM33.0042 19.1975C33.4242 19.1975 33.7975 19.1042 34.1242 18.9175C34.4602 18.7309 34.7262 18.4602 34.9222 18.1055C35.1182 17.7509 35.2162 17.3355 35.2162 16.8595C35.2162 16.3742 35.1182 15.9589 34.9222 15.6135C34.7262 15.2589 34.4602 14.9882 34.1242 14.8015C33.7975 14.6149 33.4242 14.5215 33.0042 14.5215C32.5842 14.5215 32.2062 14.6149 31.8702 14.8015C31.5342 14.9882 31.2682 15.2589 31.0722 15.6135C30.8762 15.9589 30.7782 16.3742 30.7782 16.8595C30.7782 17.3355 30.8762 17.7509 31.0722 18.1055C31.2682 18.4602 31.5342 18.7309 31.8702 18.9175C32.2062 19.1042 32.5842 19.1975 33.0042 19.1975ZM39.0648 23.4115C38.7008 23.4115 38.3368 23.3509 37.9728 23.2295C37.6088 23.1082 37.3054 22.9402 37.0628 22.7255L37.7628 21.4375C37.9401 21.5962 38.1408 21.7222 38.3648 21.8155C38.5888 21.9089 38.8174 21.9555 39.0508 21.9555C39.3681 21.9555 39.6248 21.8762 39.8208 21.7175C40.0168 21.5589 40.1988 21.2929 40.3668 20.9195L40.8008 19.9395L40.9408 19.7295L43.7688 13.1215H45.4488L41.9488 21.1995C41.7154 21.7595 41.4541 22.2029 41.1648 22.5295C40.8848 22.8562 40.5674 23.0849 40.2128 23.2155C39.8674 23.3462 39.4848 23.4115 39.0648 23.4115ZM40.6048 20.8635L37.2308 13.1215H39.0508L41.7948 19.5755L40.6048 20.8635Z" fill="white"/>
<g clip-path="url(#clip0_114_2)">
<path d="M65 23.0975H55V10.0975C55 9.54753 54.55 9.09753 54 9.09753C53.45 9.09753 53 9.54753 53 10.0975V23.0975C53 24.1975 53.9 25.0975 55 25.0975H65C65.55 25.0975 66 24.6475 66 24.0975C66 23.5475 65.55 23.0975 65 23.0975ZM70 19.0975V7.09753C70 5.99753 69.1 5.09753 68 5.09753H59C57.9 5.09753 57 5.99753 57 7.09753V19.0975C57 20.1975 57.9 21.0975 59 21.0975H68C69.1 21.0975 70 20.1975 70 19.0975ZM68 19.0975H59V7.09753H68V19.0975Z" fill="white"/>
</g>
<defs>
<clipPath id="clip0_114_2">
<rect width="24" height="24" fill="white" transform="translate(50 3.09753)"/>
</clipPath>
</defs>
</svg>
