<svg width="20" height="20" viewBox="0 0 20 20" fill="none" xmlns="http://www.w3.org/2000/svg">
<path d="M10 18.3333C8.83334 18.3333 7.74306 18.1146 6.72917 17.6771C5.71528 17.2396 4.83334 16.6458 4.08334 15.8958C3.33334 15.1458 2.74306 14.2604 2.31251 13.2396C1.88195 12.2188 1.66667 11.125 1.66667 9.95834C1.66667 8.79167 1.88195 7.70487 2.31251 6.69792C2.74306 5.69098 3.33334 4.8125 4.08334 4.0625C4.83334 3.3125 5.71528 2.7257 6.72917 2.30209C7.74306 1.87848 8.83334 1.66667 10 1.66667C11.1667 1.66667 12.2569 1.87848 13.2708 2.30209C14.2847 2.7257 15.1667 3.3125 15.9167 4.0625C16.6667 4.8125 17.2569 5.69098 17.6875 6.69792C18.1181 7.70487 18.3333 8.79167 18.3333 9.95834C18.3333 11.125 18.1181 12.2188 17.6875 13.2396C17.2569 14.2604 16.6667 15.1458 15.9167 15.8958C15.1667 16.6458 14.2847 17.2396 13.2708 17.6771C12.2569 18.1146 11.1667 18.3333 10 18.3333ZM10 17.125C10.4861 16.625 10.8924 16.0521 11.2188 15.4063C11.5451 14.7604 11.8125 13.9931 12.0208 13.1042H8C8.19445 13.9375 8.45486 14.6875 8.78125 15.3542C9.10764 16.0208 9.51389 16.6111 10 17.125ZM8.22917 16.875C7.88195 16.3472 7.58334 15.7778 7.33334 15.1667C7.08334 14.5556 6.875 13.8681 6.70834 13.1042H3.58334C4.11112 14.0903 4.72223 14.8646 5.41667 15.4271C6.11112 15.9896 7.04862 16.4722 8.22917 16.875ZM11.7917 16.8542C12.7917 16.5347 13.691 16.0556 14.4896 15.4167C15.2882 14.7778 15.9306 14.0069 16.4167 13.1042H13.3125C13.1319 13.8542 12.9201 14.5347 12.6771 15.1458C12.434 15.7569 12.1389 16.3264 11.7917 16.8542ZM3.16667 11.8542H6.47917C6.4375 11.4792 6.4132 11.1424 6.40625 10.8438C6.39931 10.5451 6.39584 10.25 6.39584 9.95834C6.39584 9.61111 6.40278 9.30209 6.41667 9.03125C6.43056 8.76042 6.45834 8.45834 6.5 8.125H3.16667C3.06945 8.45834 3.00348 8.75695 2.96875 9.02084C2.93403 9.28473 2.91667 9.59723 2.91667 9.95834C2.91667 10.3194 2.93403 10.6424 2.96875 10.9271C3.00348 11.2118 3.06945 11.5208 3.16667 11.8542ZM7.77084 11.8542H12.25C12.3056 11.4236 12.3403 11.0729 12.3542 10.8021C12.3681 10.5313 12.375 10.25 12.375 9.95834C12.375 9.68056 12.3681 9.4132 12.3542 9.15625C12.3403 8.89931 12.3056 8.55556 12.25 8.125H7.77084C7.71528 8.55556 7.68056 8.89931 7.66667 9.15625C7.65278 9.4132 7.64584 9.68056 7.64584 9.95834C7.64584 10.25 7.65278 10.5313 7.66667 10.8021C7.68056 11.0729 7.71528 11.4236 7.77084 11.8542ZM13.5 11.8542H16.8333C16.9306 11.5208 16.9965 11.2118 17.0313 10.9271C17.066 10.6424 17.0833 10.3194 17.0833 9.95834C17.0833 9.59723 17.066 9.28473 17.0313 9.02084C16.9965 8.75695 16.9306 8.45834 16.8333 8.125H13.5208C13.5625 8.61111 13.5903 8.98264 13.6042 9.23959C13.6181 9.49653 13.625 9.73612 13.625 9.95834C13.625 10.2639 13.6146 10.5521 13.5938 10.8229C13.5729 11.0938 13.5417 11.4375 13.5 11.8542ZM13.2917 6.875H16.4167C15.9583 5.91667 15.3299 5.11806 14.5313 4.47917C13.7326 3.84028 12.8125 3.38889 11.7708 3.125C12.1181 3.63889 12.4132 4.19445 12.6563 4.79167C12.8993 5.38889 13.1111 6.08334 13.2917 6.875ZM8 6.875H12.0417C11.8889 6.13889 11.6319 5.42709 11.2708 4.73959C10.9097 4.05209 10.4861 3.44445 10 2.91667C9.55556 3.29167 9.18056 3.78473 8.875 4.39584C8.56945 5.00695 8.27778 5.83334 8 6.875ZM3.58334 6.875H6.72917C6.88195 6.125 7.07639 5.45487 7.3125 4.86459C7.54862 4.27431 7.84723 3.70139 8.20834 3.14584C7.16667 3.40973 6.25695 3.85417 5.47917 4.47917C4.70139 5.10417 4.06945 5.90278 3.58334 6.875Z" fill="black"/>
</svg>
